<svg width="25" height="30" viewBox="0 0 25 30" fill="none" xmlns="http://www.w3.org/2000/svg">
<path d="M21.9679 10.3606L15.9329 9.32204L13.2352 2.84573C13.1615 2.66841 13.0403 2.52487 12.8905 2.43762C12.515 2.21808 12.0586 2.40103 11.8708 2.84573L9.17303 9.32204L3.13806 10.3606C2.97168 10.3888 2.81956 10.4816 2.70309 10.6224C2.56229 10.7937 2.4847 11.0243 2.48737 11.2634C2.49005 11.5024 2.57276 11.7305 2.71735 11.8974L7.08373 16.9382L6.05215 24.0563C6.02796 24.2218 6.04343 24.3921 6.09682 24.5478C6.1502 24.7035 6.23936 24.8384 6.35418 24.9372C6.469 25.0359 6.60489 25.0946 6.74644 25.1065C6.888 25.1185 7.02954 25.0832 7.15504 25.0048L12.553 21.6442L17.9509 25.0048C18.0983 25.0977 18.2694 25.1286 18.4335 25.0948C18.847 25.0104 19.1251 24.546 19.0538 24.0563L18.0222 16.9382L22.3886 11.8974C22.5075 11.7594 22.5859 11.5793 22.6097 11.3823C22.6739 10.8897 22.3839 10.4338 21.9679 10.3606Z" fill="black"/>
</svg>
